:SAMPLES-PER-SECOND 30
:FULLY-SPECIFIED
:DEGREES
267
root  -2.87482 40.8872 1.86307 175.357 -80.584 -177.78
RightUpLeg  4.88008 -1.72681 -2.98984
RightLeg  -0.542131 -10.0695 -0.616847
RightFoot  -0.215815 -0.513063 5.25096
RightToes  -3.13006e-008 1.75238e-005 3.56266e-009
Spine  -9.73617 0.833767 0.706505
Spine1  18.3253 0.148992 1.43434
HEad  -10.9795 18.4192 19.0644
LeftShoulder1  3.03297 -6.17115 -25.1931
LeftArm  -11.758 1.67678 -36.5355
LeftForeArm  -157.618 -65.9547 -161.339
LeftHand  0.361343 -10.5804 -2.20366
RightShoulder  3.62136 8.29728 24.5727
RightArm  7.57989 23.0838 39.1104
RightForeArm  150.186 78.4433 128.573
RightHand  0.0532487 8.10527 0.0808478
LeftUpLeg  6.80568 1.35019 0.47514
LeftLeg  -1.40053 22.0457 -1.12736
LeftFoot  -2.38729 0.137493 -1.63439
LeftToes  4.76866e-008 1.46233e-008 1.30548e-009
268
root  -2.87984 40.8845 1.85949 174.867 -80.5815 -177.395
RightUpLeg  4.99139 -1.67365 -2.90672
RightLeg  -0.504514 -10.1383 -0.639379
RightFoot  -0.235195 -0.515201 5.30236
RightToes  -3.13006e-008 1.75238e-005 3.56266e-009
Spine  -9.9445 0.752154 0.724089
Spine1  18.9087 0.0937878 1.28325
HEad  -11.2218 17.9691 19.0919
LeftShoulder1  3.091 -6.25216 -25.5388
LeftArm  -10.8754 2.2784 -39.0953
LeftForeArm  -156.399 -66.3321 -161.117
LeftHand  0.298367 -10.9492 -1.687
RightShoulder  3.70401 8.40818 25.0014
RightArm  9.82552 22.7489 40.0711
RightForeArm  149.3 78.6794 127.179
RightHand  0.0171211 8.14108 -0.228489
LeftUpLeg  6.85131 1.43255 0.568899
LeftLeg  -1.21744 21.9597 -1.05982
LeftFoot  -2.46226 0.140107 -1.6838
LeftToes  4.76866e-008 1.46233e-008 1.30548e-009
269
root  -2.88625 40.8844 1.84775 174.748 -80.5883 -177.264
RightUpLeg  4.98867 -1.64649 -2.86126
RightLeg  -0.493859 -10.1758 -0.636034
RightFoot  -0.247477 -0.507553 5.19363
RightToes  -3.13006e-008 1.75238e-005 3.56266e-009
Spine  -10.1071 0.686088 0.580199
Spine1  19.1998 0.0127178 1.33772
HEad  -11.307 17.7491 19.2261
LeftShoulder1  3.17505 -6.33681 -26.1469
LeftArm  -11.2069 2.69851 -40.9392
LeftForeArm  -155.134 -66.4471 -161.125
LeftHand  0.238268 -10.1874 -1.36074
RightShoulder  3.71551 8.38951 25.154
RightArm  10.6122 22.2913 41.0552
RightForeArm  146.623 78.9495 125.02
RightHand  0.0702482 7.65884 0.250303
LeftUpLeg  6.83681 1.45515 0.609041
LeftLeg  -1.18124 21.9085 -1.0352
LeftFoot  -2.47069 0.139007 -1.67536
LeftToes  4.76866e-008 1.46233e-008 1.30548e-009
270
root  -2.8949 40.888 1.83492 174.655 -80.6192 -177.101
RightUpLeg  4.99042 -1.65716 -2.82908
RightLeg  -0.607841 -10.2154 -0.573506
RightFoot  -0.173081 -0.499098 5.06878
RightToes  -3.13006e-008 1.75238e-005 3.56266e-009
Spine  -10.4047 0.595168 0.353245
Spine1  19.5935 -0.125985 1.52258
HEad  -11.3664 17.6265 19.0833
LeftShoulder1  3.17428 -6.25225 -26.4274
LeftArm  -12.3867 2.98303 -42.7063
LeftForeArm  -154.349 -66.3964 -161.237
LeftHand  0.265341 -9.93994 -1.59979
RightShoulder  3.65359 8.20608 25.1134
RightArm  11.0005 22.3389 41.9156
RightForeArm  144.812 79.1703 123.241
RightHand  0.00751657 7.13205 -0.289182
LeftUpLeg  6.79483 1.47261 0.664529
LeftLeg  -1.2196 21.8315 -1.06146
LeftFoot  -2.44539 0.135626 -1.63134
LeftToes  4.76866e-008 1.46233e-008 1.30548e-009
271
root  -2.90428 40.8901 1.8203 174.398 -80.6829 -176.804
RightUpLeg  5.08325 -1.65472 -2.78179
RightLeg  -0.818586 -10.3052 -0.484911
RightFoot  -0.11217 -0.4982 5.05815
RightToes  -3.13006e-008 1.75238e-005 3.56266e-009
Spine  -10.4099 0.529145 0.0921267
Spine1  19.4377 -0.273953 1.83399
HEad  -10.9815 17.5407 19.0547
LeftShoulder1  3.16802 -6.23036 -26.437
LeftArm  -13.7988 3.35907 -44.3743
LeftForeArm  -154.753 -66.3806 -161.217
LeftHand  0.326458 -9.50826 -2.13308
RightShoulder  3.58836 8.01117 25.0748
RightArm  10.9077 22.1038 42.5908
RightForeArm  143.032 79.4275 121.137
RightHand  -0.0294059 7.07336 -0.634436
LeftUpLeg  6.75141 1.51113 0.747277
LeftLeg  -1.17988 21.7366 -1.04774
LeftFoot  -2.47439 0.138359 -1.68225
LeftToes  4.76866e-008 1.46233e-008 1.30548e-009
272
root  -2.91041 40.8919 1.80729 174.336 -80.6581 -176.663
RightUpLeg  5.05469 -1.64496 -2.74972
RightLeg  -0.909311 -10.2909 -0.436342
RightFoot  -0.0972044 -0.497687 5.0507
RightToes  -3.13006e-008 1.75238e-005 3.56266e-009
Spine  -10.7257 0.513958 -0.0251532
Spine1  19.7943 -0.336018 1.98284
HEad  -10.8914 17.5491 18.9684
LeftShoulder1  3.13277 -6.10852 -26.4835
LeftArm  -14.8816 3.34865 -45.3781
LeftForeArm  -155.3 -66.3078 -161.234
LeftHand  0.280179 -9.17862 -1.83164
RightShoulder  3.56069 7.92139 25.0781
RightArm  10.4421 22.0655 42.7417
RightForeArm  142.069 79.6018 119.699
RightHand  -0.00602825 7.80762 -0.424031
LeftUpLeg  6.68499 1.53945 0.800869
LeftLeg  -1.19439 21.7108 -1.06477
LeftFoot  -2.44547 0.137576 -1.67836
LeftToes  4.76866e-008 1.46233e-008 1.30548e-009
273
root  -2.90744 40.8927 1.79107 174.418 -80.6284 -176.729
RightUpLeg  5.04306 -1.6164 -2.72066
RightLeg  -0.933006 -10.3022 -0.44406
RightFoot  -0.104641 -0.496914 5.03683
RightToes  -3.13006e-008 1.75238e-005 3.56266e-009
Spine  -10.8024 0.540167 -0.117061
Spine1  19.8668 -0.322305 2.04726
HEad  -10.8044 17.4835 18.8634
LeftShoulder1  3.08207 -5.97319 -26.4112
LeftArm  -15.6493 3.17505 -45.8812
LeftForeArm  -156.078 -66.3525 -161.128
LeftHand  0.29359 -8.8463 -1.99592
RightShoulder  3.54874 7.87334 25.1064
RightArm  10.162 21.9816 42.6052
RightForeArm  141.004 79.6025 119.334
RightHand  -0.0331467 7.46382 -0.660681
LeftUpLeg  6.66907 1.56034 0.824476
LeftLeg  -1.18517 21.7181 -1.07136
LeftFoot  -2.45919 0.13791 -1.69168
LeftToes  4.76866e-008 1.46233e-008 1.30548e-009
274
root  -2.90017 40.8932 1.7762 174.549 -80.7121 -176.918
RightUpLeg  5.08296 -1.65214 -2.73447
RightLeg  -0.883581 -10.3349 -0.450476
RightFoot  -0.132939 -0.488323 4.89957
RightToes  -3.13006e-008 1.75238e-005 3.56266e-009
Spine  -10.8995 0.551325 -0.103038
Spine1  20.0798 -0.281914 1.97273
HEad  -10.9316 17.6612 18.7623
LeftShoulder1  3.10151 -6.05959 -26.3184
LeftArm  -16.2567 2.70675 -46.1112
LeftForeArm  -156.642 -66.5732 -160.879
LeftHand  0.249111 -8.93042 -1.63405
RightShoulder  3.56489 7.89655 25.1881
RightArm  9.89857 21.6155 42.2857
RightForeArm  141.045 79.5163 119.917
RightHand  -0.104427 7.65557 -1.29767
LeftUpLeg  6.73689 1.52948 0.803174
LeftLeg  -1.23869 21.6731 -1.07166
LeftFoot  -2.43411 0.142894 -1.77713
LeftToes  4.76866e-008 1.46233e-008 1.30548e-009
275
root  -2.89522 40.8934 1.75893 174.829 -80.814 -177.225
RightUpLeg  5.09623 -1.66675 -2.76233
RightLeg  -0.831264 -10.4164 -0.485524
RightFoot  -0.168529 -0.49702 5.02927
RightToes  -3.13006e-008 1.75238e-005 3.56266e-009
Spine  -11.1876 0.577332 0.0183308
Spine1  20.3911 -0.169497 1.70743
HEad  -11.4001 17.8758 18.893
LeftShoulder1  3.11066 -6.19641 -25.9402
LeftArm  -17.0091 2.00548 -46.8923
LeftForeArm  -157.473 -67.1516 -160.272
LeftHand  0.0803547 -9.19584 -0.237695
RightShoulder  3.61337 7.98242 25.3849
RightArm  9.61456 21.0881 41.9886
RightForeArm  140.421 79.5511 119.478
RightHand  -0.0894004 7.7903 -1.15663
LeftUpLeg  6.74567 1.47754 0.757504
LeftLeg  -1.23741 21.6181 -1.04223
LeftFoot  -2.39622 0.146694 -1.84402
LeftToes  4.76866e-008 1.46233e-008 1.30548e-009
276
root  -2.89463 40.8935 1.73753 174.524 -81.027 -177.019
RightUpLeg  5.24654 -1.6265 -2.67555
RightLeg  -0.839031 -10.6991 -0.517668
RightFoot  -0.172432 -0.497464 5.02964
RightToes  -3.13006e-008 1.75238e-005 3.56266e-009
Spine  -11.195 0.567892 -0.0191254
Spine1  20.4798 -0.193519 1.77192
HEad  -11.7257 18.062 18.6044
LeftShoulder1  3.15945 -6.32549 -26.0193
LeftArm  -17.9989 1.11071 -47.5088
LeftForeArm  -159.409 -67.3578 -159.896
LeftHand  0.105974 -8.92303 -0.462466
RightShoulder  3.63767 7.95868 25.6755
RightArm  9.4364 20.2661 41.6892
RightForeArm  138.954 79.567 118.872
RightHand  -0.118235 7.69421 -1.41491
LeftUpLeg  6.86431 1.51249 0.83331
LeftLeg  -1.28871 21.3746 -1.05411
LeftFoot  -2.38208 0.142866 -1.79213
LeftToes  4.76866e-008 1.46233e-008 1.30548e-009
277
root  -2.88481 40.8933 1.71514 174.49 -81.2276 -177.033
RightUpLeg  5.30112 -1.67361 -2.68109
RightLeg  -0.797118 -10.8368 -0.466646
RightFoot  -0.243468 -0.493762 4.96485
RightToes  -3.13006e-008 1.75238e-005 3.56266e-009
Spine  -11.3695 0.530615 -0.10976
Spine1  20.8083 -0.253802 1.82404
HEad  -11.947 17.8934 17.6304
LeftShoulder1  3.19847 -6.40017 -26.1774
LeftArm  -19.8902 -0.742224 -48.5148
LeftForeArm  -161.151 -67.5344 -159.558
LeftHand  0.112116 -8.31941 -0.577321
RightShoulder  3.61388 7.86173 25.7401
RightArm  9.30927 19.531 41.8137
RightForeArm  137.967 79.6388 118.039
RightHand  -0.0622851 7.29301 -0.931016
LeftUpLeg  6.83734 1.55003 0.879843
LeftLeg  -1.17738 21.1488 -1.01633
LeftFoot  -2.39276 0.145631 -1.84257
LeftToes  4.76866e-008 1.46233e-008 1.30548e-009
